<svg width="115" height="49" viewBox="0 0 115 49" fill="none" xmlns="http://www.w3.org/2000/svg">
<path d="M15.868 43.784C15.892 43.784 15.904 43.82 15.904 43.892C15.904 43.964 15.892 44 15.868 44C15.472 44 15.154 43.994 14.914 43.982L13.618 43.964L12.358 43.982C12.142 43.994 11.836 44 11.44 44C11.416 44 11.404 43.964 11.404 43.892C11.404 43.82 11.416 43.784 11.44 43.784C11.968 43.784 12.322 43.724 12.502 43.604C12.682 43.484 12.772 43.232 12.772 42.848L12.754 42.542L12.394 34.91L8.56 43.874C8.536 43.922 8.488 43.946 8.416 43.946C8.356 43.946 8.302 43.922 8.254 43.874L3.754 34.982L3.592 41.822C3.58 42.458 3.7 42.944 3.952 43.28C4.216 43.616 4.606 43.784 5.122 43.784C5.158 43.784 5.176 43.82 5.176 43.892C5.176 43.964 5.158 44 5.122 44C4.798 44 4.546 43.994 4.366 43.982L3.376 43.964L2.314 43.982C2.134 43.994 1.882 44 1.558 44C1.522 44 1.504 43.964 1.504 43.892C1.504 43.82 1.522 43.784 1.558 43.784C2.05 43.784 2.428 43.616 2.692 43.28C2.968 42.944 3.112 42.458 3.124 41.822L3.286 34.082C3.07 33.698 2.83 33.416 2.566 33.236C2.314 33.056 2.02 32.966 1.684 32.966C1.648 32.966 1.63 32.93 1.63 32.858C1.63 32.786 1.648 32.75 1.684 32.75L2.458 32.768C2.614 32.78 2.818 32.786 3.07 32.786L3.916 32.768C4.012 32.756 4.132 32.75 4.276 32.75C4.432 32.75 4.558 32.81 4.654 32.93C4.75 33.038 4.9 33.29 5.104 33.686L9.064 41.408L12.646 33.2C12.718 33.032 12.796 32.918 12.88 32.858C12.964 32.786 13.066 32.75 13.186 32.75C13.27 32.75 13.378 32.756 13.51 32.768C13.642 32.78 13.804 32.786 13.996 32.786L14.968 32.768C15.124 32.756 15.358 32.75 15.67 32.75C15.694 32.75 15.706 32.786 15.706 32.858C15.706 32.93 15.694 32.966 15.67 32.966C15.094 32.966 14.674 33.074 14.41 33.29C14.158 33.494 14.044 33.836 14.068 34.316L14.482 42.542C14.506 42.914 14.548 43.184 14.608 43.352C14.68 43.52 14.806 43.634 14.986 43.694C15.166 43.754 15.46 43.784 15.868 43.784ZM29.487 43.784C29.523 43.784 29.541 43.82 29.541 43.892C29.541 43.964 29.523 44 29.487 44C29.079 44 28.755 43.994 28.515 43.982L27.165 43.964L25.653 43.982C25.437 43.994 25.149 44 24.789 44C24.753 44 24.735 43.964 24.735 43.892C24.735 43.82 24.753 43.784 24.789 43.784C25.245 43.784 25.575 43.754 25.779 43.694C25.983 43.634 26.121 43.52 26.193 43.352C26.265 43.184 26.301 42.914 26.301 42.542V34.856L18.921 44.18C18.885 44.228 18.801 44.252 18.669 44.252C18.453 44.252 18.345 44.21 18.345 44.126V34.208C18.345 33.848 18.309 33.584 18.237 33.416C18.165 33.248 18.027 33.134 17.823 33.074C17.631 33.002 17.319 32.966 16.887 32.966C16.851 32.966 16.833 32.93 16.833 32.858C16.833 32.786 16.851 32.75 16.887 32.75L17.859 32.768C18.435 32.792 18.885 32.804 19.209 32.804C19.641 32.804 20.145 32.792 20.721 32.768L21.585 32.75C21.621 32.75 21.639 32.786 21.639 32.858C21.639 32.93 21.621 32.966 21.585 32.966C21.129 32.966 20.799 33.002 20.595 33.074C20.391 33.134 20.253 33.248 20.181 33.416C20.109 33.584 20.073 33.848 20.073 34.208V41.966L27.453 32.642C27.489 32.606 27.573 32.588 27.705 32.588C27.789 32.588 27.861 32.6 27.921 32.624C27.993 32.648 28.029 32.678 28.029 32.714V42.542C28.029 42.902 28.065 43.172 28.137 43.352C28.209 43.52 28.341 43.634 28.533 43.694C28.737 43.754 29.055 43.784 29.487 43.784ZM33.8182 42.47C33.8182 42.854 33.8602 43.136 33.9442 43.316C34.0402 43.484 34.2142 43.604 34.4662 43.676C34.7302 43.748 35.1382 43.784 35.6902 43.784C35.7262 43.784 35.7442 43.82 35.7442 43.892C35.7442 43.964 35.7262 44 35.6902 44C35.1982 44 34.8142 43.994 34.5382 43.982L32.9722 43.964L31.6762 43.982C31.4482 43.994 31.1362 44 30.7402 44C30.7042 44 30.6862 43.964 30.6862 43.892C30.6862 43.82 30.7042 43.784 30.7402 43.784C31.1482 43.784 31.4422 43.754 31.6222 43.694C31.8022 43.634 31.9222 43.52 31.9822 43.352C32.0542 43.184 32.0902 42.914 32.0902 42.542V34.208C32.0902 33.848 32.0542 33.584 31.9822 33.416C31.9222 33.248 31.7962 33.134 31.6042 33.074C31.4242 33.002 31.1362 32.966 30.7402 32.966C30.7042 32.966 30.6862 32.93 30.6862 32.858C30.6862 32.786 30.7042 32.75 30.7402 32.75L31.6762 32.768C32.2042 32.792 32.6302 32.804 32.9542 32.804C33.2302 32.804 33.5662 32.786 33.9622 32.75C34.1062 32.738 34.2982 32.726 34.5382 32.714C34.7902 32.702 35.0842 32.696 35.4202 32.696C36.6082 32.696 37.5442 32.948 38.2282 33.452C38.9242 33.956 39.2722 34.73 39.2722 35.774C39.2722 36.53 39.0742 37.172 38.6782 37.7C38.2942 38.228 37.7962 38.624 37.1842 38.888C36.5842 39.152 35.9662 39.284 35.3302 39.284C34.9942 39.284 34.7122 39.254 34.4842 39.194C34.4482 39.194 34.4302 39.164 34.4302 39.104C34.4302 39.068 34.4362 39.032 34.4482 38.996C34.4722 38.96 34.4962 38.948 34.5202 38.96C34.7122 39.008 34.9222 39.032 35.1502 39.032C35.7742 39.032 36.3022 38.774 36.7342 38.258C37.1662 37.742 37.3822 37.004 37.3822 36.044C37.3822 35.096 37.1602 34.364 36.7162 33.848C36.2722 33.32 35.6602 33.056 34.8802 33.056C34.5922 33.056 34.3702 33.086 34.2142 33.146C34.0702 33.206 33.9682 33.32 33.9082 33.488C33.8482 33.644 33.8182 33.896 33.8182 34.244V42.47ZM49.4995 37.646C50.7595 37.646 51.7795 37.898 52.5595 38.402C53.3515 38.906 53.7475 39.668 53.7475 40.688C53.7475 41.336 53.5795 41.918 53.2435 42.434C52.9075 42.95 52.4395 43.352 51.8395 43.64C51.2515 43.928 50.5795 44.072 49.8235 44.072C49.5115 44.072 49.1275 44.054 48.6715 44.018C48.5035 44.006 48.2875 43.994 48.0235 43.982C47.7715 43.97 47.4895 43.964 47.1775 43.964L45.8815 43.982C45.6535 43.994 45.3415 44 44.9455 44C44.9095 44 44.8915 43.964 44.8915 43.892C44.8915 43.82 44.9095 43.784 44.9455 43.784C45.3535 43.784 45.6475 43.754 45.8275 43.694C46.0195 43.634 46.1515 43.52 46.2235 43.352C46.2955 43.172 46.3315 42.902 46.3315 42.542V34.208C46.3315 33.848 46.2955 33.584 46.2235 33.416C46.1635 33.248 46.0375 33.134 45.8455 33.074C45.6535 33.002 45.3595 32.966 44.9635 32.966C44.9395 32.966 44.9275 32.93 44.9275 32.858C44.9275 32.786 44.9395 32.75 44.9635 32.75H52.3615C52.4935 32.75 52.5775 32.774 52.6135 32.822C52.6495 32.858 52.6675 32.96 52.6675 33.128L52.8475 35.702C52.8475 35.738 52.8115 35.762 52.7395 35.774C52.6795 35.774 52.6435 35.756 52.6315 35.72C52.4755 34.88 52.1695 34.244 51.7135 33.812C51.2695 33.368 50.7115 33.146 50.0395 33.146H49.1935C48.7375 33.146 48.4315 33.224 48.2755 33.38C48.1315 33.536 48.0595 33.848 48.0595 34.316V37.754C48.5395 37.682 49.0195 37.646 49.4995 37.646ZM49.4815 43.658C50.3335 43.658 50.9515 43.448 51.3355 43.028C51.7315 42.608 51.9295 41.978 51.9295 41.138C51.9295 40.094 51.6655 39.326 51.1375 38.834C50.6215 38.342 49.8895 38.096 48.9415 38.096C48.7615 38.096 48.4675 38.12 48.0595 38.168V42.542C48.0595 42.926 48.1495 43.208 48.3295 43.388C48.5215 43.568 48.9055 43.658 49.4815 43.658ZM58.4276 42.47C58.4276 42.854 58.4696 43.136 58.5536 43.316C58.6496 43.484 58.8236 43.604 59.0756 43.676C59.3396 43.748 59.7476 43.784 60.2996 43.784C60.3356 43.784 60.3536 43.82 60.3536 43.892C60.3536 43.964 60.3356 44 60.2996 44C59.8076 44 59.4236 43.994 59.1476 43.982L57.5816 43.964L56.2856 43.982C56.0576 43.994 55.7456 44 55.3496 44C55.3136 44 55.2956 43.964 55.2956 43.892C55.2956 43.82 55.3136 43.784 55.3496 43.784C55.7576 43.784 56.0516 43.754 56.2316 43.694C56.4116 43.634 56.5316 43.52 56.5916 43.352C56.6636 43.184 56.6996 42.914 56.6996 42.542V34.208C56.6996 33.848 56.6636 33.584 56.5916 33.416C56.5316 33.248 56.4056 33.134 56.2136 33.074C56.0336 33.002 55.7456 32.966 55.3496 32.966C55.3136 32.966 55.2956 32.93 55.2956 32.858C55.2956 32.786 55.3136 32.75 55.3496 32.75L56.2856 32.768C56.8136 32.792 57.2396 32.804 57.5636 32.804C57.8396 32.804 58.1756 32.786 58.5716 32.75C58.7156 32.738 58.9076 32.726 59.1476 32.714C59.3996 32.702 59.6936 32.696 60.0296 32.696C61.2176 32.696 62.1536 32.948 62.8376 33.452C63.5336 33.956 63.8816 34.73 63.8816 35.774C63.8816 36.53 63.6836 37.172 63.2876 37.7C62.9036 38.228 62.4056 38.624 61.7936 38.888C61.1936 39.152 60.5756 39.284 59.9396 39.284C59.6036 39.284 59.3216 39.254 59.0936 39.194C59.0576 39.194 59.0396 39.164 59.0396 39.104C59.0396 39.068 59.0456 39.032 59.0576 38.996C59.0816 38.96 59.1056 38.948 59.1296 38.96C59.3216 39.008 59.5316 39.032 59.7596 39.032C60.3836 39.032 60.9116 38.774 61.3436 38.258C61.7756 37.742 61.9916 37.004 61.9916 36.044C61.9916 35.096 61.7696 34.364 61.3256 33.848C60.8816 33.32 60.2696 33.056 59.4896 33.056C59.2016 33.056 58.9796 33.086 58.8236 33.146C58.6796 33.206 58.5776 33.32 58.5176 33.488C58.4576 33.644 58.4276 33.896 58.4276 34.244V42.47ZM71.1681 44.216C70.0521 44.216 69.0561 43.958 68.1801 43.442C67.3161 42.914 66.6441 42.206 66.1641 41.318C65.6961 40.418 65.4621 39.44 65.4621 38.384C65.4621 37.148 65.7741 36.092 66.3981 35.216C67.0221 34.328 67.8201 33.662 68.7921 33.218C69.7761 32.774 70.7781 32.552 71.7981 32.552C72.9381 32.552 73.9401 32.822 74.8041 33.362C75.6681 33.89 76.3281 34.592 76.7841 35.468C77.2521 36.344 77.4861 37.274 77.4861 38.258C77.4861 39.35 77.1981 40.352 76.6221 41.264C76.0461 42.176 75.2721 42.896 74.3001 43.424C73.3401 43.952 72.2961 44.216 71.1681 44.216ZM71.7801 43.784C72.5001 43.784 73.1421 43.592 73.7061 43.208C74.2821 42.812 74.7321 42.236 75.0561 41.48C75.3921 40.724 75.5601 39.824 75.5601 38.78C75.5601 37.676 75.3741 36.686 75.0021 35.81C74.6421 34.934 74.1201 34.25 73.4361 33.758C72.7641 33.266 71.9721 33.02 71.0601 33.02C69.8961 33.02 68.9901 33.44 68.3421 34.28C67.7061 35.108 67.3881 36.26 67.3881 37.736C67.3881 38.876 67.5741 39.908 67.9461 40.832C68.3301 41.756 68.8521 42.482 69.5121 43.01C70.1841 43.526 70.9401 43.784 71.7801 43.784ZM84.6793 37.682C85.6633 37.79 86.4493 38.12 87.0373 38.672C87.6253 39.224 87.9193 39.908 87.9193 40.724C87.9193 41.348 87.7453 41.918 87.3973 42.434C87.0613 42.938 86.5873 43.34 85.9753 43.64C85.3753 43.928 84.7033 44.072 83.9593 44.072C83.6113 44.072 83.2093 44.054 82.7533 44.018C82.5973 44.006 82.3993 43.994 82.1593 43.982C81.9193 43.97 81.6493 43.964 81.3493 43.964L80.0533 43.982C79.8253 43.994 79.5133 44 79.1173 44C79.0813 44 79.0633 43.964 79.0633 43.892C79.0633 43.82 79.0813 43.784 79.1173 43.784C79.5013 43.784 79.7893 43.754 79.9813 43.694C80.1733 43.622 80.3053 43.502 80.3773 43.334C80.4613 43.166 80.5033 42.902 80.5033 42.542V34.208C80.5033 33.86 80.4613 33.602 80.3773 33.434C80.3053 33.254 80.1733 33.134 79.9813 33.074C79.8013 33.002 79.5193 32.966 79.1353 32.966C79.1113 32.966 79.0993 32.93 79.0993 32.858C79.0993 32.786 79.1113 32.75 79.1353 32.75L80.0713 32.768C80.5993 32.792 81.0253 32.804 81.3493 32.804C81.6853 32.804 82.0393 32.786 82.4113 32.75C82.5433 32.738 82.6993 32.726 82.8793 32.714C83.0713 32.702 83.2873 32.696 83.5273 32.696C84.5953 32.696 85.4113 32.906 85.9753 33.326C86.5513 33.734 86.8393 34.304 86.8393 35.036C86.8393 35.6 86.6473 36.116 86.2633 36.584C85.8913 37.052 85.3633 37.418 84.6793 37.682ZM83.2213 33.056C82.8373 33.056 82.5733 33.134 82.4293 33.29C82.2973 33.446 82.2313 33.764 82.2313 34.244V37.664L82.9873 37.682C83.6953 37.682 84.2293 37.454 84.5893 36.998C84.9493 36.53 85.1293 35.93 85.1293 35.198C85.1293 34.514 84.9673 33.986 84.6433 33.614C84.3193 33.242 83.8453 33.056 83.2213 33.056ZM83.6713 43.658C85.2913 43.658 86.1013 42.824 86.1013 41.156C86.1013 40.244 85.8613 39.512 85.3813 38.96C84.9133 38.408 84.2233 38.132 83.3113 38.132C82.8793 38.132 82.5193 38.144 82.2313 38.168V42.542C82.2313 42.818 82.2673 43.034 82.3393 43.19C82.4113 43.346 82.5493 43.466 82.7533 43.55C82.9573 43.622 83.2633 43.658 83.6713 43.658ZM97.6575 41.192C97.6575 41.168 97.6815 41.156 97.7295 41.156C97.7655 41.156 97.7955 41.168 97.8195 41.192C97.8555 41.204 97.8735 41.216 97.8735 41.228C97.7535 42.14 97.6935 42.974 97.6935 43.73C97.6935 43.826 97.6755 43.898 97.6395 43.946C97.6035 43.982 97.5315 44 97.4235 44H89.6115C89.5755 44 89.5575 43.964 89.5575 43.892C89.5575 43.82 89.5755 43.784 89.6115 43.784C90.0195 43.784 90.3135 43.754 90.4935 43.694C90.6855 43.634 90.8115 43.52 90.8715 43.352C90.9435 43.172 90.9795 42.902 90.9795 42.542V34.208C90.9795 33.848 90.9435 33.584 90.8715 33.416C90.8115 33.248 90.6855 33.134 90.4935 33.074C90.3015 33.002 90.0075 32.966 89.6115 32.966C89.5755 32.966 89.5575 32.93 89.5575 32.858C89.5575 32.786 89.5755 32.75 89.6115 32.75H97.0995C97.2195 32.75 97.2795 32.804 97.2795 32.912L97.3155 35.252C97.3155 35.276 97.2795 35.294 97.2075 35.306C97.1475 35.318 97.1115 35.306 97.0995 35.27C96.8115 33.902 95.9775 33.218 94.5975 33.218H93.8775C93.4455 33.218 93.1395 33.296 92.9595 33.452C92.7795 33.608 92.6895 33.872 92.6895 34.244V37.916H94.4175C95.7375 37.916 96.3975 37.472 96.3975 36.584C96.3975 36.548 96.4275 36.53 96.4875 36.53C96.5595 36.53 96.5955 36.548 96.5955 36.584L96.5775 38.15L96.5955 38.996C96.6195 39.38 96.6315 39.692 96.6315 39.932C96.6315 39.956 96.5955 39.968 96.5235 39.968C96.4515 39.968 96.4155 39.956 96.4155 39.932C96.4155 38.9 95.7435 38.384 94.3995 38.384H92.6895V42.47C92.6895 42.866 92.7615 43.142 92.9055 43.298C93.0615 43.454 93.3315 43.532 93.7155 43.532H94.5975C96.2055 43.532 97.2255 42.752 97.6575 41.192ZM105.935 31.94C105.491 31.94 105.065 31.862 104.657 31.706C104.261 31.55 103.937 31.346 103.685 31.094C103.445 30.842 103.325 30.572 103.325 30.284C103.325 30.08 103.385 29.918 103.505 29.798C103.637 29.678 103.811 29.618 104.027 29.618C104.279 29.618 104.459 29.702 104.567 29.87C104.675 30.026 104.771 30.266 104.855 30.59C104.963 30.926 105.089 31.19 105.233 31.382C105.389 31.574 105.617 31.67 105.917 31.67C106.229 31.67 106.469 31.574 106.637 31.382C106.805 31.178 106.937 30.908 107.033 30.572C107.141 30.248 107.249 30.008 107.357 29.852C107.465 29.696 107.639 29.618 107.879 29.618C108.095 29.618 108.263 29.678 108.383 29.798C108.503 29.918 108.563 30.08 108.563 30.284C108.563 30.572 108.437 30.848 108.185 31.112C107.945 31.364 107.621 31.568 107.213 31.724C106.805 31.868 106.379 31.94 105.935 31.94ZM111.893 43.784C111.929 43.784 111.947 43.82 111.947 43.892C111.947 43.964 111.929 44 111.893 44C111.485 44 111.161 43.994 110.921 43.982L109.571 43.964L108.059 43.982C107.843 43.994 107.555 44 107.195 44C107.159 44 107.141 43.964 107.141 43.892C107.141 43.82 107.159 43.784 107.195 43.784C107.651 43.784 107.981 43.754 108.185 43.694C108.389 43.634 108.527 43.52 108.599 43.352C108.671 43.184 108.707 42.914 108.707 42.542V34.856L101.327 44.18C101.291 44.228 101.207 44.252 101.075 44.252C100.859 44.252 100.751 44.21 100.751 44.126V34.208C100.751 33.848 100.715 33.584 100.643 33.416C100.571 33.248 100.433 33.134 100.229 33.074C100.037 33.002 99.7252 32.966 99.2932 32.966C99.2572 32.966 99.2392 32.93 99.2392 32.858C99.2392 32.786 99.2572 32.75 99.2932 32.75L100.265 32.768C100.841 32.792 101.291 32.804 101.615 32.804C102.047 32.804 102.551 32.792 103.127 32.768L103.991 32.75C104.027 32.75 104.045 32.786 104.045 32.858C104.045 32.93 104.027 32.966 103.991 32.966C103.535 32.966 103.205 33.002 103.001 33.074C102.797 33.134 102.659 33.248 102.587 33.416C102.515 33.584 102.479 33.848 102.479 34.208V41.966L109.859 32.642C109.895 32.606 109.979 32.588 110.111 32.588C110.195 32.588 110.267 32.6 110.327 32.624C110.399 32.648 110.435 32.678 110.435 32.714V42.542C110.435 42.902 110.471 43.172 110.543 43.352C110.615 43.52 110.747 43.634 110.939 43.694C111.143 43.754 111.461 43.784 111.893 43.784Z" fill="white"/>
<path d="M8.775 14.225C10.1417 14.375 11.2333 14.8333 12.05 15.6C12.8667 16.3667 13.275 17.3167 13.275 18.45C13.275 19.3167 13.0333 20.1083 12.55 20.825C12.0833 21.525 11.425 22.0833 10.575 22.5C9.74167 22.9 8.80833 23.1 7.775 23.1C7.29167 23.1 6.73333 23.075 6.1 23.025C5.88333 23.0083 5.60833 22.9917 5.275 22.975C4.94167 22.9583 4.56667 22.95 4.15 22.95L2.35 22.975C2.03333 22.9917 1.6 23 1.05 23C1 23 0.975 22.95 0.975 22.85C0.975 22.75 1 22.7 1.05 22.7C1.58333 22.7 1.98333 22.6583 2.25 22.575C2.51667 22.475 2.7 22.3083 2.8 22.075C2.91667 21.8417 2.975 21.475 2.975 20.975V9.4C2.975 8.91667 2.91667 8.55833 2.8 8.325C2.7 8.075 2.51667 7.90833 2.25 7.825C2 7.725 1.60833 7.675 1.075 7.675C1.04167 7.675 1.025 7.625 1.025 7.525C1.025 7.425 1.04167 7.375 1.075 7.375L2.375 7.4C3.10833 7.43333 3.7 7.45 4.15 7.45C4.61667 7.45 5.10833 7.425 5.625 7.375C5.80833 7.35833 6.025 7.34167 6.275 7.325C6.54167 7.30833 6.84167 7.3 7.175 7.3C8.65833 7.3 9.79167 7.59167 10.575 8.175C11.375 8.74167 11.775 9.53333 11.775 10.55C11.775 11.3333 11.5083 12.05 10.975 12.7C10.4583 13.35 9.725 13.8583 8.775 14.225ZM6.75 7.8C6.21667 7.8 5.85 7.90833 5.65 8.125C5.46667 8.34167 5.375 8.78333 5.375 9.45V14.2L6.425 14.225C7.40833 14.225 8.15 13.9083 8.65 13.275C9.15 12.625 9.4 11.7917 9.4 10.775C9.4 9.825 9.175 9.09167 8.725 8.575C8.275 8.05833 7.61667 7.8 6.75 7.8ZM7.375 22.525C9.625 22.525 10.75 21.3667 10.75 19.05C10.75 17.7833 10.4167 16.7667 9.75 16C9.1 15.2333 8.14167 14.85 6.875 14.85C6.275 14.85 5.775 14.8667 5.375 14.9V20.975C5.375 21.3583 5.425 21.6583 5.525 21.875C5.625 22.0917 5.81667 22.2583 6.1 22.375C6.38333 22.475 6.80833 22.525 7.375 22.525ZM32.0502 22.7C32.1002 22.7 32.1252 22.75 32.1252 22.85C32.1252 22.95 32.1002 23 32.0502 23H28.0252C27.6419 23 26.9252 22.3083 25.8752 20.925C24.8419 19.525 23.5752 17.575 22.0752 15.075C21.8085 15.125 21.5335 15.15 21.2502 15.15C20.6335 15.15 20.2002 15.1417 19.9502 15.125V20.975C19.9502 21.4917 19.9919 21.8667 20.0752 22.1C20.1752 22.3333 20.3502 22.4917 20.6002 22.575C20.8669 22.6583 21.2835 22.7 21.8502 22.7C21.8835 22.7 21.9002 22.75 21.9002 22.85C21.9002 22.95 21.8835 23 21.8502 23C21.3002 23 20.8752 22.9917 20.5752 22.975L18.7252 22.95L16.9252 22.975C16.6085 22.9917 16.1752 23 15.6252 23C15.5752 23 15.5502 22.95 15.5502 22.85C15.5502 22.75 15.5752 22.7 15.6252 22.7C16.1919 22.7 16.6002 22.6583 16.8502 22.575C17.1169 22.4917 17.3002 22.3333 17.4002 22.1C17.5002 21.85 17.5502 21.475 17.5502 20.975V9.4C17.5502 8.9 17.5002 8.53333 17.4002 8.3C17.3169 8.06667 17.1419 7.90833 16.8752 7.825C16.6085 7.725 16.2002 7.675 15.6502 7.675C15.6169 7.675 15.6002 7.625 15.6002 7.525C15.6002 7.425 15.6169 7.375 15.6502 7.375L16.9502 7.4C17.6835 7.43333 18.2752 7.45 18.7252 7.45C19.2252 7.45 19.7502 7.425 20.3002 7.375C20.5002 7.35833 20.7419 7.34167 21.0252 7.325C21.3085 7.30833 21.6169 7.3 21.9502 7.3C23.4335 7.3 24.5752 7.575 25.3752 8.125C26.1752 8.675 26.5752 9.45 26.5752 10.45C26.5752 11.2333 26.3419 11.975 25.8752 12.675C25.4085 13.375 24.8002 13.9417 24.0502 14.375C25.4169 16.475 26.5585 18.125 27.4752 19.325C28.4085 20.5083 29.2335 21.3667 29.9502 21.9C30.6669 22.4333 31.3669 22.7 32.0502 22.7ZM19.9502 14.425C20.3502 14.4917 20.8335 14.525 21.4002 14.525C22.4002 14.525 23.1002 14.3 23.5002 13.85C23.9002 13.4 24.1002 12.575 24.1002 11.375C24.1002 10.025 23.8752 9.09167 23.4252 8.575C22.9752 8.04167 22.3419 7.775 21.5252 7.775C20.9252 7.775 20.5085 7.89167 20.2752 8.125C20.0585 8.35833 19.9502 8.8 19.9502 9.45V14.425ZM39.8141 23.3C38.2641 23.3 36.8807 22.9417 35.6641 22.225C34.4641 21.4917 33.5307 20.5083 32.8641 19.275C32.2141 18.025 31.8891 16.6667 31.8891 15.2C31.8891 13.4833 32.3224 12.0167 33.1891 10.8C34.0557 9.56667 35.1641 8.64167 36.5141 8.025C37.8807 7.40833 39.2724 7.1 40.6891 7.1C42.2724 7.1 43.6641 7.475 44.8641 8.225C46.0641 8.95833 46.9807 9.93333 47.6141 11.15C48.2641 12.3667 48.5891 13.6583 48.5891 15.025C48.5891 16.5417 48.1891 17.9333 47.3891 19.2C46.5891 20.4667 45.5141 21.4667 44.1641 22.2C42.8307 22.9333 41.3807 23.3 39.8141 23.3ZM40.6641 22.7C41.6641 22.7 42.5557 22.4333 43.3391 21.9C44.1391 21.35 44.7641 20.55 45.2141 19.5C45.6807 18.45 45.9141 17.2 45.9141 15.75C45.9141 14.2167 45.6557 12.8417 45.1391 11.625C44.6391 10.4083 43.9141 9.45833 42.9641 8.775C42.0307 8.09167 40.9307 7.75 39.6641 7.75C38.0474 7.75 36.7891 8.33333 35.8891 9.5C35.0057 10.65 34.5641 12.25 34.5641 14.3C34.5641 15.8833 34.8224 17.3167 35.3391 18.6C35.8724 19.8833 36.5974 20.8917 37.5141 21.625C38.4474 22.3417 39.4974 22.7 40.6641 22.7ZM72.0938 7.375C72.1271 7.375 72.1438 7.425 72.1438 7.525C72.1438 7.625 72.1271 7.675 72.0938 7.675C71.4771 7.675 70.8938 7.9 70.3438 8.35C69.8104 8.8 69.4271 9.45 69.1938 10.3L65.5938 22.975C65.5938 23.0417 65.5021 23.075 65.3188 23.075C65.1521 23.075 65.0604 23.0417 65.0438 22.975L60.2188 11.025L56.4938 22.975C56.4938 23.0417 56.4021 23.075 56.2188 23.075C56.0688 23.075 55.9688 23.0417 55.9188 22.975L51.2688 9.45C51.0188 8.75 50.7521 8.28333 50.4688 8.05C50.1854 7.8 49.7937 7.675 49.2938 7.675C49.2438 7.675 49.2188 7.625 49.2188 7.525C49.2188 7.425 49.2438 7.375 49.2938 7.375L49.9438 7.4C50.3104 7.43333 50.7271 7.45 51.1938 7.45C52.2604 7.45 53.2771 7.43333 54.2438 7.4C54.5271 7.38333 54.8604 7.375 55.2438 7.375C55.2771 7.375 55.2938 7.425 55.2938 7.525C55.2938 7.625 55.2771 7.675 55.2438 7.675C54.2271 7.675 53.7188 8.04167 53.7188 8.775C53.7188 9.05833 53.7771 9.375 53.8938 9.725L57.0688 19L60.6938 7.375C60.7438 7.325 60.8438 7.3 60.9938 7.3C61.1604 7.3 61.2521 7.325 61.2688 7.375L66.0188 19.1L68.4438 10.375C68.5604 9.90833 68.6188 9.55 68.6188 9.3C68.6188 8.21667 67.9271 7.675 66.5438 7.675C66.5104 7.675 66.4938 7.625 66.4938 7.525C66.4938 7.425 66.5104 7.375 66.5438 7.375L67.8938 7.4C68.6938 7.43333 69.3521 7.45 69.8688 7.45C70.2021 7.45 70.5854 7.43333 71.0188 7.4L72.0938 7.375ZM92.5982 22.7C92.6316 22.7 92.6482 22.75 92.6482 22.85C92.6482 22.95 92.6316 23 92.5982 23C92.0482 23 91.6066 22.9917 91.2732 22.975L89.4732 22.95L87.7232 22.975C87.4232 22.9917 86.9982 23 86.4482 23C86.4149 23 86.3982 22.95 86.3982 22.85C86.3982 22.75 86.4149 22.7 86.4482 22.7C87.1816 22.7 87.6732 22.6167 87.9232 22.45C88.1732 22.2833 88.2982 21.9333 88.2982 21.4L88.2732 20.975L87.7732 10.375L82.4482 22.825C82.4149 22.8917 82.3482 22.925 82.2482 22.925C82.1649 22.925 82.0899 22.8917 82.0232 22.825L75.7732 10.475L75.5482 19.975C75.5316 20.8583 75.6982 21.5333 76.0482 22C76.4149 22.4667 76.9566 22.7 77.6732 22.7C77.7232 22.7 77.7482 22.75 77.7482 22.85C77.7482 22.95 77.7232 23 77.6732 23C77.2232 23 76.8732 22.9917 76.6232 22.975L75.2482 22.95L73.7732 22.975C73.5232 22.9917 73.1732 23 72.7232 23C72.6732 23 72.6482 22.95 72.6482 22.85C72.6482 22.75 72.6732 22.7 72.7232 22.7C73.4066 22.7 73.9316 22.4667 74.2982 22C74.6816 21.5333 74.8816 20.8583 74.8982 19.975L75.1232 9.225C74.8232 8.69167 74.4899 8.3 74.1232 8.05C73.7732 7.8 73.3649 7.675 72.8982 7.675C72.8482 7.675 72.8232 7.625 72.8232 7.525C72.8232 7.425 72.8482 7.375 72.8982 7.375L73.9732 7.4C74.1899 7.41667 74.4732 7.425 74.8232 7.425L75.9982 7.4C76.1316 7.38333 76.2982 7.375 76.4982 7.375C76.7149 7.375 76.8899 7.45833 77.0232 7.625C77.1566 7.775 77.3649 8.125 77.6482 8.675L83.1482 19.4L88.1232 8C88.2232 7.76667 88.3316 7.60833 88.4482 7.525C88.5649 7.425 88.7066 7.375 88.8732 7.375C88.9899 7.375 89.1399 7.38333 89.3232 7.4C89.5066 7.41667 89.7316 7.425 89.9982 7.425L91.3482 7.4C91.5649 7.38333 91.8899 7.375 92.3232 7.375C92.3566 7.375 92.3732 7.425 92.3732 7.525C92.3732 7.625 92.3566 7.675 92.3232 7.675C91.5232 7.675 90.9399 7.825 90.5732 8.125C90.2232 8.40833 90.0649 8.88333 90.0982 9.55L90.6732 20.975C90.7066 21.4917 90.7649 21.8667 90.8482 22.1C90.9482 22.3333 91.1232 22.4917 91.3732 22.575C91.6232 22.6583 92.0316 22.7 92.5982 22.7ZM98.6385 20.975C98.6385 21.4917 98.6801 21.8667 98.7635 22.1C98.8468 22.3333 99.0135 22.4917 99.2635 22.575C99.5301 22.6583 99.9468 22.7 100.513 22.7C100.563 22.7 100.588 22.75 100.588 22.85C100.588 22.95 100.563 23 100.513 23C99.9801 23 99.5551 22.9917 99.2385 22.975L97.3885 22.95L95.5885 22.975C95.2718 22.9917 94.8385 23 94.2885 23C94.2385 23 94.2135 22.95 94.2135 22.85C94.2135 22.75 94.2385 22.7 94.2885 22.7C94.8551 22.7 95.2635 22.6583 95.5135 22.575C95.7801 22.4917 95.9635 22.3333 96.0635 22.1C96.1635 21.85 96.2135 21.475 96.2135 20.975V9.4C96.2135 8.9 96.1635 8.53333 96.0635 8.3C95.9635 8.06667 95.7801 7.90833 95.5135 7.825C95.2635 7.725 94.8551 7.675 94.2885 7.675C94.2385 7.675 94.2135 7.625 94.2135 7.525C94.2135 7.425 94.2385 7.375 94.2885 7.375L95.5885 7.4C96.3218 7.43333 96.9218 7.45 97.3885 7.45C97.9051 7.45 98.5301 7.43333 99.2635 7.4L100.513 7.375C100.563 7.375 100.588 7.425 100.588 7.525C100.588 7.625 100.563 7.675 100.513 7.675C99.9635 7.675 99.5551 7.725 99.2885 7.825C99.0385 7.925 98.8635 8.1 98.7635 8.35C98.6801 8.58333 98.6385 8.95 98.6385 9.45V20.975ZM105.76 10.025C105.76 10.6417 105.91 11.1917 106.21 11.675C106.527 12.1417 106.91 12.55 107.36 12.9C107.827 13.25 108.452 13.6667 109.235 14.15C110.085 14.6833 110.752 15.1417 111.235 15.525C111.735 15.9083 112.152 16.3833 112.485 16.95C112.835 17.5 113.01 18.15 113.01 18.9C113.01 19.75 112.785 20.5083 112.335 21.175C111.902 21.8417 111.277 22.3667 110.46 22.75C109.66 23.1167 108.743 23.3 107.71 23.3C107.01 23.3 106.285 23.2083 105.535 23.025C104.802 22.8417 104.243 22.6167 103.86 22.35C103.71 22.25 103.627 22.0917 103.61 21.875L103.46 18.075V18.05C103.46 17.9833 103.502 17.95 103.585 17.95C103.668 17.9333 103.718 17.9583 103.735 18.025C104.285 19.4083 104.91 20.5417 105.61 21.425C106.327 22.3083 107.235 22.75 108.335 22.75C109.052 22.75 109.652 22.5583 110.135 22.175C110.618 21.775 110.86 21.1167 110.86 20.2C110.86 19.4667 110.693 18.825 110.36 18.275C110.043 17.725 109.643 17.2667 109.16 16.9C108.693 16.5333 108.052 16.0833 107.235 15.55C106.435 15.0333 105.81 14.6 105.36 14.25C104.91 13.8833 104.527 13.4417 104.21 12.925C103.893 12.3917 103.735 11.775 103.735 11.075C103.735 10.2083 103.977 9.475 104.46 8.875C104.943 8.275 105.568 7.83333 106.335 7.55C107.118 7.25 107.935 7.1 108.785 7.1C109.352 7.1 109.918 7.15833 110.485 7.275C111.052 7.375 111.527 7.50833 111.91 7.675C112.06 7.725 112.16 7.79167 112.21 7.875C112.26 7.94167 112.285 8.03333 112.285 8.15L112.36 11.55C112.36 11.6 112.31 11.6417 112.21 11.675C112.127 11.6917 112.077 11.6667 112.06 11.6C111.727 10.5833 111.277 9.66667 110.71 8.85C110.16 8.01667 109.327 7.6 108.21 7.6C107.46 7.6 106.86 7.81667 106.41 8.25C105.977 8.68333 105.76 9.275 105.76 10.025Z" fill="white"/>
<path d="M0 25.5H114.335V26.75H0V25.5Z" fill="white"/>
</svg>
